<svg width="20" height="20" viewBox="0 0 20 20" fill="none" xmlns="http://www.w3.org/2000/svg">
<path d="M10.7458 7.5H9.25408C8.74552 7.5 8.33325 7.91227 8.33325 8.42083V16.5792C8.33325 17.0877 8.74552 17.5 9.25408 17.5H10.7458C11.2543 17.5 11.6666 17.0877 11.6666 16.5792V8.42083C11.6666 7.91227 11.2543 7.5 10.7458 7.5Z" stroke="white" stroke-width="2" stroke-linecap="round" stroke-linejoin="round"/>
<path d="M16.5792 2.5H15.0876C14.579 2.5 14.1667 2.91227 14.1667 3.42083V16.5792C14.1667 17.0877 14.579 17.5 15.0876 17.5H16.5792C17.0878 17.5 17.5001 17.0877 17.5001 16.5792V3.42083C17.5001 2.91227 17.0878 2.5 16.5792 2.5Z" stroke="white" stroke-width="2" stroke-linecap="round" stroke-linejoin="round"/>
<path d="M4.16667 17.5C5.08714 17.5 5.83333 16.7538 5.83333 15.8333C5.83333 14.9128 5.08714 14.1666 4.16667 14.1666C3.24619 14.1666 2.5 14.9128 2.5 15.8333C2.5 16.7538 3.24619 17.5 4.16667 17.5Z" stroke="white" stroke-width="2" stroke-linecap="round" stroke-linejoin="round"/>
</svg>
